<?xml version="1.0" encoding="UTF-8" standalone="no"?>
<!DOCTYPE svg PUBLIC "-//W3C//DTD SVG 1.1//EN" "http://www.w3.org/Graphics/SVG/1.1/DTD/svg11.dtd">
<svg width="100%" height="100%" viewBox="0 0 863 438" version="1.1" xmlns="http://www.w3.org/2000/svg" xmlns:xlink="http://www.w3.org/1999/xlink" xml:space="preserve" xmlns:serif="http://www.serif.com/" style="fill-rule:evenodd;clip-rule:evenodd;stroke-linejoin:round;stroke-miterlimit:2;">
    <g transform="matrix(1.01389,0,0,0.91358,-71.8504,-43.1613)">
        <rect x="70.866" y="47.244" width="850.394" height="478.346" style="fill:white;"/>
    </g>
    <g transform="matrix(0.78125,0,0,0.78125,-33.7721,-69.0207)">
        <rect x="88.583" y="224.409" width="377.953" height="377.953" style="fill:rgb(22,148,146);"/>
    </g>
    <g transform="matrix(1,0,0,1,-70.8661,-64.5625)">
        <path d="M135.827,318.5L171.26,318.5L171.26,401.177L253.937,401.177L253.937,437.008L135.827,437.008L135.827,318.5Z" style="fill:rgb(195,218,218);"/>
    </g>
    <g transform="matrix(3.26735,0,0,3.26735,-1197.28,-1428.24)">
        <path d="M496.574,505.807L520.07,505.807L520.53,549.213L510.523,549.213L510.523,544.696C506.419,548.534 502.006,550.452 497.283,550.452C491.32,550.452 486.39,548.297 482.493,543.987C478.626,539.589 476.692,534.098 476.692,527.515C476.692,521.05 478.626,515.662 482.493,511.352C486.36,507.042 490.758,505.807 496.574,505.807ZM486.877,527.515C486.877,531.648 487.984,535.013 490.198,537.611C492.471,540.238 495.334,541.552 498.788,541.552C502.478,541.552 505.46,540.283 507.733,537.744C510.006,535.116 511.143,531.781 511.143,527.736C511.143,523.692 510.006,520.356 507.733,517.729C505.46,515.16 502.508,513.876 498.877,513.876C495.452,513.876 492.589,515.175 490.286,517.773C488.013,520.4 486.877,523.648 486.877,527.515Z" style="fill-rule:nonzero;"/>
    </g>
    <g transform="matrix(3.28617,0,0,3.28617,-1215.81,-1438.66)">
        <path d="M547.409,539.825L573.048,539.825L573.048,549.213L527.66,549.213L555.601,515.382L533.593,515.382L533.593,506.083L575.306,506.083L547.409,539.825Z" style="fill-rule:nonzero;"/>
    </g>
    <g transform="matrix(1,0,0,1,-11.811,-29.5276)">
        <path d="M838.583,194.882L720.472,431.102L685.039,431.102L748.41,309.615L704.61,230.315L283.465,230.315L283.465,312.992L248.031,312.992L248.031,230.315L165.354,230.315L165.354,194.882L248.031,194.882L248.031,64.961L413.386,64.961L413.386,100.394L283.465,100.394L283.465,194.882L720.472,194.882L765.354,272.835L803.15,194.882L838.583,194.882Z"/>
    </g>
    <g transform="matrix(1.40397,0,0,1.40397,-468.725,-360.786)">
        <path d="M484.477,486.725L498.177,486.725C499.977,486.725 501.685,486.9 503.302,487.25C504.918,487.6 506.335,488.183 507.552,489C508.768,489.817 509.735,490.917 510.452,492.3C511.168,493.683 511.527,495.408 511.527,497.475C511.527,499.975 510.877,502.1 509.577,503.85C508.277,505.6 506.377,506.708 503.877,507.175L512.877,522.125L503.527,522.125L496.127,507.975L492.277,507.975L492.277,522.125L484.477,522.125L484.477,486.725ZM492.277,501.375L496.877,501.375C497.577,501.375 498.318,501.35 499.102,501.3C499.885,501.25 500.593,501.1 501.227,500.85C501.86,500.6 502.385,500.208 502.802,499.675C503.218,499.142 503.427,498.392 503.427,497.425C503.427,496.525 503.243,495.808 502.877,495.275C502.51,494.742 502.043,494.333 501.477,494.05C500.91,493.767 500.26,493.575 499.527,493.475C498.793,493.375 498.077,493.325 497.377,493.325L492.277,493.325L492.277,501.375Z" style="fill:rgb(195,218,218);fill-rule:nonzero;"/>
        <path d="M513.377,486.725L522.277,486.725L531.027,509.925L531.127,509.925L540.027,486.725L548.377,486.725L533.777,522.125L527.527,522.125L513.377,486.725Z" style="fill:rgb(195,218,218);fill-rule:nonzero;"/>
    </g>
</svg>
